<svg version="1.2" xmlns="http://www.w3.org/2000/svg" viewBox="0 0 256 225" width="57" height="50">
	<title>github</title>
	<defs>
		<clipPath clipPathUnits="userSpaceOnUse" id="cp1">
			<path d="m98.1 244.8c1.6 7.5 5.5 11.9 9.4 14.5h41.1c5-3.4 10.1-9.8 10.1-21.8v-31c0 0 0.6-7.7 7.7-10.2 0 0 4.1-2.9-0.3-4.5 0 0-19.5-1.6-19.5 14.4v23.6c0 0 0.8 8.7-3.8 12.3v-29.2c0 0 0.3-9.3 5.1-12.8 0 0 3.2-5.7-3.8-4.2 0 0-13.4 1.9-14 17.6l-0.3 30h-3.2l-0.3-30c-0.6-15.6-14-17.6-14-17.6-7-1.6-3.8 4.2-3.8 4.2 4.8 3.5 5.1 12.8 5.1 12.8v29.5c-4.6-3.3-3.8-12.6-3.8-12.6v-23.6c0-16-19.5-14.4-19.5-14.4-4.5 1.6-0.3 4.5-0.3 4.5 7 2.6 7.7 10.2 7.7 10.2v21.7z"/>
		</clipPath>
	</defs>
	<style>
		.s0 { fill: #9edcf2 } 
		.s1 { fill: #7dbce7 } 
		.s2 { fill: #010101 } 
		.s3 { fill: #f5ccb3 } 
		.s4 { fill: #ffffff } 
		.s5 { fill: #af5c51 } 
		.s6 { fill: #c4e5d9 } 
	</style>
	<g>
		<path class="s0" d="m200.9 199.8c0 13.9-32.2 25.1-71.9 25.1-39.7 0-71.9-11.3-71.9-25.1 0-13.9 32.2-25.1 71.9-25.1 39.7 0 71.9 11.2 71.9 25.1z"/>
		<g>
			<g id="Clip-Path" clip-path="url(#cp1)">
				<path class="s1" d="m200.9 199.8c0 13.9-32.2 25.1-71.9 25.1-39.7 0-71.9-11.3-71.9-25.1 0-13.9 32.2-25.1 71.9-25.1 39.7 0 71.9 11.2 71.9 25.1z"/>
			</g>
		</g>
		<path class="s0" d="m46.9 125.9l-2.1 7.2c0 0-0.5 2.6 1.9 3.1 2.6-0.1 2.4-2.5 2.2-3.2z"/>
		<path class="s2" d="m255.8 95.6l0.2-0.9c-21.1-4.2-42.7-4.3-55.8-3.7 2.1-7.7 2.8-16.7 2.8-26.6 0-14.3-5.4-25.7-14-34.3 1.5-4.9 3.5-15.8-2-29.7 0 0-9.8-3.1-32.1 11.8-8.7-2.2-18-3.3-27.3-3.3-10.2 0-20.5 1.3-30.2 3.9-23-15.7-33.1-12.5-33.1-12.5-6.6 16.5-2.5 28.8-1.3 31.8-7.8 8.4-12.5 19.1-12.5 32.2 0 9.9 1.1 18.8 3.9 26.5-13.2-0.5-34-0.3-54.4 3.8l0.2 0.9c20.4-4.1 41.4-4.2 54.5-3.7 0.6 1.6 1.3 3.2 2 4.7-13 0.4-35.1 2.1-56.3 8.1l0.3 0.9c21.4-6 43.7-7.6 56.6-8 7.8 14.4 23 23.8 50.2 26.7-3.9 2.6-7.8 7-9.4 14.5-5.3 2.5-21.9 8.7-31.9-8.5 0 0-5.6-10.2-16.3-11 0 0-10.4-0.2-0.7 6.5 0 0 6.9 3.3 11.7 15.6 0 0 6.3 21 36.4 14.2v21.5c0 0-0.6 7.7-7.7 10.2 0 0-4.2 2.9 0.3 4.5 0 0 19.5 1.6 19.5-14.4v-23.6c0 0-0.8-9.4 3.8-12.6v38.8c0 0-0.3 9.3-5.1 12.8 0 0-3.2 5.7 3.8 4.2 0 0 13.4-1.9 14-17.6l0.3-39.3h3.2l0.3 39.3c0.6 15.6 14 17.6 14 17.6 7 1.6 3.8-4.2 3.8-4.2-4.8-3.5-5.1-12.8-5.1-12.8v-38.5c4.6 3.6 3.8 12.3 3.8 12.3v23.6c0 16 19.5 14.4 19.5 14.4 4.5-1.6 0.3-4.5 0.3-4.5-7-2.6-7.7-10.2-7.7-10.2v-31c0-12.1-5.1-18.5-10.1-21.8 29-2.9 42.9-12.2 49.3-26.8 12.7 0.3 35.6 1.9 57.4 8.1l0.3-0.9c-21.7-6.1-44.4-7.7-57.3-8.1 0.6-1.5 1.1-3 1.6-4.6 13.4-0.5 35.1-0.5 56.3 3.7z"/>
		<path class="s3" d="m174.6 63.7c6.2 5.7 9.9 12.5 9.9 19.8 0 34.4-25.6 35.3-57.2 35.3-31.6 0-57.2-4.8-57.2-35.3 0-7.3 3.6-14.1 9.8-19.7 10.3-9.4 27.7-4.4 47.4-4.4 19.7 0 37-5.1 47.3 4.3z"/>
		<path class="s4" d="m108.3 85.3c0 9.5-5.3 17.1-11.9 17.1-6.6 0-11.9-7.7-11.9-17.1 0-9.5 5.3-17.1 11.9-17.1 6.6-0.1 11.9 7.6 11.9 17.1z"/>
		<path class="s5" d="m104.5 85.5c0 6.3-3.6 11.4-7.9 11.4-4.4 0-7.9-5.1-7.9-11.4 0-6.3 3.6-11.4 7.9-11.4 4.3 0 7.9 5.1 7.9 11.4z"/>
		<path class="s4" d="m172.2 85.3c0 9.5-5.3 17.1-11.9 17.1-6.6 0-11.9-7.7-11.9-17.1 0-9.5 5.3-17.1 11.9-17.1 6.5-0.1 11.9 7.6 11.9 17.1z"/>
		<path class="s5" d="m168.3 85.5c0 6.3-3.6 11.4-7.9 11.4-4.4 0-7.9-5.1-7.9-11.4 0-6.3 3.6-11.4 7.9-11.4 4.4 0 7.9 5.1 7.9 11.4z"/>
		<path class="s5" d="m130.5 100.5c0 1.6-1.3 3-3 3-1.6 0-3-1.3-3-3 0-1.7 1.3-3 3-3 1.6 0 3 1.3 3 3z"/>
		<path class="s5" d="m120.6 108c-0.2-0.5 0.1-1 0.6-1.2 0.5-0.2 1 0.1 1.2 0.6 0.8 2.2 2.8 3.6 5.1 3.6 2.3 0 4.3-1.5 5.1-3.6 0.2-0.5 0.7-0.8 1.2-0.6 0.5 0.2 0.8 0.7 0.6 1.2-1 2.9-3.8 4.9-6.9 4.9-3.1 0-5.9-2-6.9-4.9z"/>
		<path class="s6" d="m54.5 121.6c0 0.8-0.9 1.4-2.1 1.4-1.1 0-2.1-0.6-2.1-1.4 0-0.8 0.9-1.4 2.1-1.4 1.2 0 2.1 0.6 2.1 1.4z"/>
		<path class="s6" d="m60.3 124.8c0 0.8-0.9 1.4-2.1 1.4-1.1 0-2.1-0.6-2.1-1.4 0-0.8 0.9-1.4 2.1-1.4 1.2 0 2.1 0.6 2.1 1.4z"/>
		<path class="s6" d="m63.8 129c0 0.8-0.9 1.4-2.1 1.4-1.1 0-2.1-0.6-2.1-1.4 0-0.8 0.9-1.4 2.1-1.4 1.2-0.1 2.1 0.6 2.1 1.4z"/>
		<path class="s6" d="m67 133.8c0 0.8-0.9 1.4-2.1 1.4-1.1 0-2.1-0.6-2.1-1.4 0-0.8 0.9-1.4 2.1-1.4 1.2-0.1 2.1 0.6 2.1 1.4z"/>
		<path class="s6" d="m70.5 138.2c0 0.8-0.9 1.4-2.1 1.4-1.1 0-2.1-0.6-2.1-1.4 0-0.8 0.9-1.4 2.1-1.4 1.2 0 2.1 0.6 2.1 1.4z"/>
		<path class="s6" d="m75.3 142.1c0 0.8-0.9 1.4-2.1 1.4-1.1 0-2.1-0.6-2.1-1.4 0-0.8 0.9-1.4 2.1-1.4 1.2-0.1 2.1 0.6 2.1 1.4z"/>
		<path class="s6" d="m82 144.6c0 0.8-0.9 1.4-2.1 1.4-1.1 0-2.1-0.6-2.1-1.4 0-0.8 0.9-1.4 2.1-1.4 1.2 0 2.1 0.6 2.1 1.4z"/>
		<path class="s6" d="m88.7 144.6c0 0.8-0.9 1.4-2.1 1.4-1.1 0-2.1-0.6-2.1-1.4 0-0.8 0.9-1.4 2.1-1.4 1.2 0 2.1 0.6 2.1 1.4z"/>
		<path class="s6" d="m95.5 143.5c0 0.8-0.9 1.4-2.1 1.4-1.1 0-2.1-0.6-2.1-1.4 0-0.8 0.9-1.4 2.1-1.4 1.1 0 2.1 0.6 2.1 1.4z"/>
	</g>
</svg>